# xmcd
#
# Track frame offsets:
#	150
#	12605
#	26795
#	38603
#	50590
#	63859
#	75091
#	88333
#	104460
#	119549
#	131062
#	142597
#	155611
#	168711
#	180528
#	192999
#	200778
#	215141
#	227947
#	237777
#
# Disc length: 3324
#
# Revision: 2
# Processed by: cddbd v1.5.1PL0 Copyright (c) Steve Scherf et al.
# Submitted via: EasyCDDAExtractor 4.6.9.1
# Normalized: r0:TDELIM( - ),TSWAP
#
DISCID=1f0cfa14
DTITLE=Various Artist - The Heart Of The Country [CD1]
DYEAR=1900
DGENRE=Country
TTITLE0=Patsy Cline - I Fall To Pieces
TTITLE1=Willie Nelson - Cold Cold Heart
TTITLE2=Tammy Wyneette - Stand By Your Man
TTITLE3=George Jones - The Door
TTITLE4=Loretta Lynn - Coal Miner's Daughter
TTITLE5=Johnny Cash - Big River
TTITLE6=Patti Page - Tennessee Waltz
TTITLE7=Jimmie Davis - You Are My Sunshine
TTITLE8=Merle Haggard - I Love You So Much It Hurts Me
TTITLE9=Patsy Cline - Walkin' After Midnight
TTITLE10=Tennessee Ernie Ford - Sixteen Tons
TTITLE11=Willie Nelson - Smoke, Smoke, Smoke That Cigarette
TTITLE12=Dolly Parton - Here You Come Again
TTITLE13=Glen Campbell - Galveston
TTITLE14=Lynn Anderson - Rose Garden
TTITLE15=Roger Miller - Doo-Wacka-Doo
TTITLE16=Jeannie C. Riley\t - Harper Valley P.T.A.
TTITLE17=Marty Robbins - Devil Woman
TTITLE18=Conway Twitty - It's Only Make Believe
TTITLE19=Skeeter Davis\t - The End Of The World
EXTD=
EXTT0=
EXTT1=
EXTT2=
EXTT3=
EXTT4=
EXTT5=
EXTT6=
EXTT7=
EXTT8=
EXTT9=
EXTT10=
EXTT11=
EXTT12=
EXTT13=
EXTT14=
EXTT15=
EXTT16=
EXTT17=
EXTT18=
EXTT19=
PLAYORDER=
